<svg id="wave" style="transform:rotate(0deg); transition: 0.3s" viewBox="0 0 1440 380" version="1.1" xmlns="http://www.w3.org/2000/svg"><defs><linearGradient id="sw-gradient-0" x1="0" x2="0" y1="1" y2="0"><stop stop-color="rgba(246.213, 246.213, 246.213, 1)" offset="0%"></stop><stop stop-color="rgba(0, 0, 0, 1)" offset="100%"></stop></linearGradient></defs><path style="transform:translate(0, 0px); opacity:1" fill="url(#sw-gradient-0)" d="M0,228L17.1,209C34.3,190,69,152,103,139.3C137.1,127,171,139,206,145.7C240,152,274,152,309,152C342.9,152,377,152,411,171C445.7,190,480,228,514,247C548.6,266,583,266,617,234.3C651.4,203,686,139,720,152C754.3,165,789,253,823,278.7C857.1,304,891,266,926,221.7C960,177,994,127,1029,133C1062.9,139,1097,203,1131,196.3C1165.7,190,1200,114,1234,101.3C1268.6,89,1303,139,1337,171C1371.4,203,1406,215,1440,234.3C1474.3,253,1509,279,1543,247C1577.1,215,1611,127,1646,133C1680,139,1714,241,1749,285C1782.9,329,1817,317,1851,297.7C1885.7,279,1920,253,1954,247C1988.6,241,2023,253,2057,272.3C2091.4,291,2126,317,2160,329.3C2194.3,342,2229,342,2263,310.3C2297.1,279,2331,215,2366,177.3C2400,139,2434,127,2451,120.3L2468.6,114L2468.6,380L2451.4,380C2434.3,380,2400,380,2366,380C2331.4,380,2297,380,2263,380C2228.6,380,2194,380,2160,380C2125.7,380,2091,380,2057,380C2022.9,380,1989,380,1954,380C1920,380,1886,380,1851,380C1817.1,380,1783,380,1749,380C1714.3,380,1680,380,1646,380C1611.4,380,1577,380,1543,380C1508.6,380,1474,380,1440,380C1405.7,380,1371,380,1337,380C1302.9,380,1269,380,1234,380C1200,380,1166,380,1131,380C1097.1,380,1063,380,1029,380C994.3,380,960,380,926,380C891.4,380,857,380,823,380C788.6,380,754,380,720,380C685.7,380,651,380,617,380C582.9,380,549,380,514,380C480,380,446,380,411,380C377.1,380,343,380,309,380C274.3,380,240,380,206,380C171.4,380,137,380,103,380C68.6,380,34,380,17,380L0,380Z"></path><defs><linearGradient id="sw-gradient-1" x1="0" x2="0" y1="1" y2="0"><stop stop-color="rgba(255, 255, 255, 1)" offset="0%"></stop><stop stop-color="rgba(0, 0, 0, 1)" offset="100%"></stop></linearGradient></defs><path style="transform:translate(0, 50px); opacity:0.9" fill="url(#sw-gradient-1)" d="M0,0L17.1,19C34.3,38,69,76,103,82.3C137.1,89,171,63,206,95C240,127,274,215,309,209C342.9,203,377,101,411,107.7C445.7,114,480,228,514,259.7C548.6,291,583,241,617,209C651.4,177,686,165,720,152C754.3,139,789,127,823,126.7C857.1,127,891,139,926,145.7C960,152,994,152,1029,177.3C1062.9,203,1097,253,1131,234.3C1165.7,215,1200,127,1234,101.3C1268.6,76,1303,114,1337,158.3C1371.4,203,1406,253,1440,259.7C1474.3,266,1509,228,1543,215.3C1577.1,203,1611,215,1646,209C1680,203,1714,177,1749,183.7C1782.9,190,1817,228,1851,209C1885.7,190,1920,114,1954,76C1988.6,38,2023,38,2057,88.7C2091.4,139,2126,241,2160,285C2194.3,329,2229,317,2263,285C2297.1,253,2331,203,2366,190C2400,177,2434,203,2451,215.3L2468.6,228L2468.6,380L2451.4,380C2434.3,380,2400,380,2366,380C2331.4,380,2297,380,2263,380C2228.6,380,2194,380,2160,380C2125.7,380,2091,380,2057,380C2022.9,380,1989,380,1954,380C1920,380,1886,380,1851,380C1817.1,380,1783,380,1749,380C1714.3,380,1680,380,1646,380C1611.4,380,1577,380,1543,380C1508.6,380,1474,380,1440,380C1405.7,380,1371,380,1337,380C1302.9,380,1269,380,1234,380C1200,380,1166,380,1131,380C1097.1,380,1063,380,1029,380C994.3,380,960,380,926,380C891.4,380,857,380,823,380C788.6,380,754,380,720,380C685.7,380,651,380,617,380C582.9,380,549,380,514,380C480,380,446,380,411,380C377.1,380,343,380,309,380C274.3,380,240,380,206,380C171.4,380,137,380,103,380C68.6,380,34,380,17,380L0,380Z"></path><defs><linearGradient id="sw-gradient-2" x1="0" x2="0" y1="1" y2="0"><stop stop-color="rgba(255, 255, 255, 1)" offset="0%"></stop><stop stop-color="rgba(0, 0, 0, 1)" offset="100%"></stop></linearGradient></defs><path style="transform:translate(0, 100px); opacity:0.8" fill="url(#sw-gradient-2)" d="M0,38L17.1,57C34.3,76,69,114,103,152C137.1,190,171,228,206,221.7C240,215,274,165,309,171C342.9,177,377,241,411,253.3C445.7,266,480,228,514,177.3C548.6,127,583,63,617,50.7C651.4,38,686,76,720,101.3C754.3,127,789,139,823,120.3C857.1,101,891,51,926,82.3C960,114,994,228,1029,272.3C1062.9,317,1097,291,1131,285C1165.7,279,1200,291,1234,291.3C1268.6,291,1303,279,1337,234.3C1371.4,190,1406,114,1440,114C1474.3,114,1509,190,1543,202.7C1577.1,215,1611,165,1646,145.7C1680,127,1714,139,1749,145.7C1782.9,152,1817,152,1851,152C1885.7,152,1920,152,1954,133C1988.6,114,2023,76,2057,50.7C2091.4,25,2126,13,2160,19C2194.3,25,2229,51,2263,50.7C2297.1,51,2331,25,2366,63.3C2400,101,2434,203,2451,253.3L2468.6,304L2468.6,380L2451.4,380C2434.3,380,2400,380,2366,380C2331.4,380,2297,380,2263,380C2228.6,380,2194,380,2160,380C2125.7,380,2091,380,2057,380C2022.9,380,1989,380,1954,380C1920,380,1886,380,1851,380C1817.1,380,1783,380,1749,380C1714.3,380,1680,380,1646,380C1611.4,380,1577,380,1543,380C1508.6,380,1474,380,1440,380C1405.7,380,1371,380,1337,380C1302.9,380,1269,380,1234,380C1200,380,1166,380,1131,380C1097.1,380,1063,380,1029,380C994.3,380,960,380,926,380C891.4,380,857,380,823,380C788.6,380,754,380,720,380C685.7,380,651,380,617,380C582.9,380,549,380,514,380C480,380,446,380,411,380C377.1,380,343,380,309,380C274.3,380,240,380,206,380C171.4,380,137,380,103,380C68.6,380,34,380,17,380L0,380Z"></path><defs><linearGradient id="sw-gradient-3" x1="0" x2="0" y1="1" y2="0"><stop stop-color="rgba(248.49, 248.49, 248.49, 1)" offset="0%"></stop><stop stop-color="rgba(0, 0, 0, 1)" offset="100%"></stop></linearGradient></defs><path style="transform:translate(0, 150px); opacity:0.7" fill="url(#sw-gradient-3)" d="M0,266L17.1,259.7C34.3,253,69,241,103,202.7C137.1,165,171,101,206,88.7C240,76,274,114,309,152C342.9,190,377,228,411,247C445.7,266,480,266,514,221.7C548.6,177,583,89,617,44.3C651.4,0,686,0,720,44.3C754.3,89,789,177,823,196.3C857.1,215,891,165,926,133C960,101,994,89,1029,114C1062.9,139,1097,203,1131,202.7C1165.7,203,1200,139,1234,114C1268.6,89,1303,101,1337,107.7C1371.4,114,1406,114,1440,101.3C1474.3,89,1509,63,1543,95C1577.1,127,1611,215,1646,221.7C1680,228,1714,152,1749,114C1782.9,76,1817,76,1851,114C1885.7,152,1920,228,1954,259.7C1988.6,291,2023,279,2057,278.7C2091.4,279,2126,291,2160,278.7C2194.3,266,2229,228,2263,221.7C2297.1,215,2331,241,2366,253.3C2400,266,2434,266,2451,266L2468.6,266L2468.6,380L2451.4,380C2434.3,380,2400,380,2366,380C2331.4,380,2297,380,2263,380C2228.6,380,2194,380,2160,380C2125.7,380,2091,380,2057,380C2022.9,380,1989,380,1954,380C1920,380,1886,380,1851,380C1817.1,380,1783,380,1749,380C1714.3,380,1680,380,1646,380C1611.4,380,1577,380,1543,380C1508.6,380,1474,380,1440,380C1405.7,380,1371,380,1337,380C1302.9,380,1269,380,1234,380C1200,380,1166,380,1131,380C1097.1,380,1063,380,1029,380C994.3,380,960,380,926,380C891.4,380,857,380,823,380C788.6,380,754,380,720,380C685.7,380,651,380,617,380C582.9,380,549,380,514,380C480,380,446,380,411,380C377.1,380,343,380,309,380C274.3,380,240,380,206,380C171.4,380,137,380,103,380C68.6,380,34,380,17,380L0,380Z"></path></svg>