<svg id="wave" style="transform:rotate(0deg); transition: 0.3s" viewBox="0 0 1440 490" version="1.1" xmlns="http://www.w3.org/2000/svg"><defs><linearGradient id="sw-gradient-0" x1="0" x2="0" y1="1" y2="0"><stop stop-color="rgba(0, 123, 255, 0)" offset="0%"></stop><stop stop-color="rgba(0, 123, 255, 1)" offset="100%"></stop></linearGradient></defs><path style="transform:translate(0, 0px); opacity:1" fill="url(#sw-gradient-0)" d="M0,245L40,220.5C80,196,160,147,240,171.5C320,196,400,294,480,302.2C560,310,640,229,720,236.8C800,245,880,343,960,383.8C1040,425,1120,408,1200,334.8C1280,261,1360,131,1440,130.7C1520,131,1600,261,1680,261.3C1760,261,1840,131,1920,122.5C2000,114,2080,229,2160,253.2C2240,278,2320,212,2400,163.3C2480,114,2560,82,2640,98C2720,114,2800,180,2880,187.8C2960,196,3040,147,3120,130.7C3200,114,3280,131,3360,114.3C3440,98,3520,49,3600,98C3680,147,3760,294,3840,310.3C3920,327,4000,212,4080,155.2C4160,98,4240,98,4320,106.2C4400,114,4480,131,4560,179.7C4640,229,4720,310,4800,334.8C4880,359,4960,327,5040,269.5C5120,212,5200,131,5280,138.8C5360,147,5440,245,5520,285.8C5600,327,5680,310,5720,302.2L5760,294L5760,490L5720,490C5680,490,5600,490,5520,490C5440,490,5360,490,5280,490C5200,490,5120,490,5040,490C4960,490,4880,490,4800,490C4720,490,4640,490,4560,490C4480,490,4400,490,4320,490C4240,490,4160,490,4080,490C4000,490,3920,490,3840,490C3760,490,3680,490,3600,490C3520,490,3440,490,3360,490C3280,490,3200,490,3120,490C3040,490,2960,490,2880,490C2800,490,2720,490,2640,490C2560,490,2480,490,2400,490C2320,490,2240,490,2160,490C2080,490,2000,490,1920,490C1840,490,1760,490,1680,490C1600,490,1520,490,1440,490C1360,490,1280,490,1200,490C1120,490,1040,490,960,490C880,490,800,490,720,490C640,490,560,490,480,490C400,490,320,490,240,490C160,490,80,490,40,490L0,490Z"></path><defs><linearGradient id="sw-gradient-1" x1="0" x2="0" y1="1" y2="0"><stop stop-color="rgba(0, 123, 255, 0)" offset="0%"></stop><stop stop-color="rgba(0, 123, 255, 1)" offset="100%"></stop></linearGradient></defs><path style="transform:translate(0, 50px); opacity:0.9" fill="url(#sw-gradient-1)" d="M0,392L40,334.8C80,278,160,163,240,130.7C320,98,400,147,480,171.5C560,196,640,196,720,204.2C800,212,880,229,960,228.7C1040,229,1120,212,1200,228.7C1280,245,1360,294,1440,277.7C1520,261,1600,180,1680,187.8C1760,196,1840,294,1920,326.7C2000,359,2080,327,2160,277.7C2240,229,2320,163,2400,114.3C2480,65,2560,33,2640,24.5C2720,16,2800,33,2880,81.7C2960,131,3040,212,3120,269.5C3200,327,3280,359,3360,318.5C3440,278,3520,163,3600,171.5C3680,180,3760,310,3840,375.7C3920,441,4000,441,4080,416.5C4160,392,4240,343,4320,326.7C4400,310,4480,327,4560,334.8C4640,343,4720,343,4800,343C4880,343,4960,343,5040,326.7C5120,310,5200,278,5280,220.5C5360,163,5440,82,5520,89.8C5600,98,5680,196,5720,245L5760,294L5760,490L5720,490C5680,490,5600,490,5520,490C5440,490,5360,490,5280,490C5200,490,5120,490,5040,490C4960,490,4880,490,4800,490C4720,490,4640,490,4560,490C4480,490,4400,490,4320,490C4240,490,4160,490,4080,490C4000,490,3920,490,3840,490C3760,490,3680,490,3600,490C3520,490,3440,490,3360,490C3280,490,3200,490,3120,490C3040,490,2960,490,2880,490C2800,490,2720,490,2640,490C2560,490,2480,490,2400,490C2320,490,2240,490,2160,490C2080,490,2000,490,1920,490C1840,490,1760,490,1680,490C1600,490,1520,490,1440,490C1360,490,1280,490,1200,490C1120,490,1040,490,960,490C880,490,800,490,720,490C640,490,560,490,480,490C400,490,320,490,240,490C160,490,80,490,40,490L0,490Z"></path><defs><linearGradient id="sw-gradient-2" x1="0" x2="0" y1="1" y2="0"><stop stop-color="rgba(0, 123, 255, 0)" offset="0%"></stop><stop stop-color="rgba(0, 123, 255, 1)" offset="100%"></stop></linearGradient></defs><path style="transform:translate(0, 100px); opacity:0.8" fill="url(#sw-gradient-2)" d="M0,0L40,40.8C80,82,160,163,240,171.5C320,180,400,114,480,114.3C560,114,640,180,720,228.7C800,278,880,310,960,285.8C1040,261,1120,180,1200,130.7C1280,82,1360,65,1440,73.5C1520,82,1600,114,1680,130.7C1760,147,1840,147,1920,187.8C2000,229,2080,310,2160,334.8C2240,359,2320,327,2400,318.5C2480,310,2560,327,2640,310.3C2720,294,2800,245,2880,212.3C2960,180,3040,163,3120,179.7C3200,196,3280,245,3360,294C3440,343,3520,392,3600,375.7C3680,359,3760,278,3840,261.3C3920,245,4000,294,4080,261.3C4160,229,4240,114,4320,73.5C4400,33,4480,65,4560,114.3C4640,163,4720,229,4800,253.2C4880,278,4960,261,5040,261.3C5120,261,5200,278,5280,285.8C5360,294,5440,294,5520,318.5C5600,343,5680,392,5720,416.5L5760,441L5760,490L5720,490C5680,490,5600,490,5520,490C5440,490,5360,490,5280,490C5200,490,5120,490,5040,490C4960,490,4880,490,4800,490C4720,490,4640,490,4560,490C4480,490,4400,490,4320,490C4240,490,4160,490,4080,490C4000,490,3920,490,3840,490C3760,490,3680,490,3600,490C3520,490,3440,490,3360,490C3280,490,3200,490,3120,490C3040,490,2960,490,2880,490C2800,490,2720,490,2640,490C2560,490,2480,490,2400,490C2320,490,2240,490,2160,490C2080,490,2000,490,1920,490C1840,490,1760,490,1680,490C1600,490,1520,490,1440,490C1360,490,1280,490,1200,490C1120,490,1040,490,960,490C880,490,800,490,720,490C640,490,560,490,480,490C400,490,320,490,240,490C160,490,80,490,40,490L0,490Z"></path><defs><linearGradient id="sw-gradient-3" x1="0" x2="0" y1="1" y2="0"><stop stop-color="rgba(0, 123, 255, 0)" offset="0%"></stop><stop stop-color="rgba(0, 123, 255, 1)" offset="100%"></stop></linearGradient></defs><path style="transform:translate(0, 150px); opacity:0.7" fill="url(#sw-gradient-3)" d="M0,245L40,212.3C80,180,160,114,240,89.8C320,65,400,82,480,106.2C560,131,640,163,720,155.2C800,147,880,98,960,81.7C1040,65,1120,82,1200,130.7C1280,180,1360,261,1440,245C1520,229,1600,114,1680,65.3C1760,16,1840,33,1920,73.5C2000,114,2080,180,2160,245C2240,310,2320,376,2400,367.5C2480,359,2560,278,2640,204.2C2720,131,2800,65,2880,81.7C2960,98,3040,196,3120,253.2C3200,310,3280,327,3360,334.8C3440,343,3520,343,3600,310.3C3680,278,3760,212,3840,196C3920,180,4000,212,4080,220.5C4160,229,4240,212,4320,196C4400,180,4480,163,4560,163.3C4640,163,4720,180,4800,171.5C4880,163,4960,131,5040,114.3C5120,98,5200,98,5280,130.7C5360,163,5440,229,5520,220.5C5600,212,5680,131,5720,89.8L5760,49L5760,490L5720,490C5680,490,5600,490,5520,490C5440,490,5360,490,5280,490C5200,490,5120,490,5040,490C4960,490,4880,490,4800,490C4720,490,4640,490,4560,490C4480,490,4400,490,4320,490C4240,490,4160,490,4080,490C4000,490,3920,490,3840,490C3760,490,3680,490,3600,490C3520,490,3440,490,3360,490C3280,490,3200,490,3120,490C3040,490,2960,490,2880,490C2800,490,2720,490,2640,490C2560,490,2480,490,2400,490C2320,490,2240,490,2160,490C2080,490,2000,490,1920,490C1840,490,1760,490,1680,490C1600,490,1520,490,1440,490C1360,490,1280,490,1200,490C1120,490,1040,490,960,490C880,490,800,490,720,490C640,490,560,490,480,490C400,490,320,490,240,490C160,490,80,490,40,490L0,490Z"></path></svg>