<svg xmlns="http://www.w3.org/2000/svg" width="383" height="138" data-name="Layer 1" style=""><rect id="backgroundrect" width="100%" height="100%" x="0" y="0" fill="none" stroke="none"/>
 <title>i can fly</title>

 <g style="" class="currentLayer">
  <title>Layer 1</title>
  <path id="svg_5" fill="#f2f2f2" d="m0,137.96664513957978 a82.05654,82.05654 0 0 1 81.94283,-77.768 c2.4938700000000003,0 4.95648,0.13007 7.39368,0.3478900000000001 a109.02172,109.02172 0 0 1 188.459,-0.08910000000000003 c2.05613,-0.15444000000000005 4.12609,-0.25878999999999996 6.22169,-0.25878999999999996 a82.05654,82.05654 0 0 1 81.94283,77.768 " class=""/>
  <path id="svg_6" stroke-miterlimit="10" stroke="#3f3d56" fill="none" d="m17.09057,131.6545151395798 a82.05654,82.05654 0 0 1 81.94283,-77.768 c2.49386,0 4.95648,0.13007 7.39368,0.34788000000000013 a109.02173,109.02173 0 0 1 188.459,-0.08910000000000003 c2.05613,-0.15443000000000004 4.12609,-0.25878 6.22169,-0.25878 a82.05654,82.05654 0 0 1 81.94283,77.768 " class=""/>
 </g>
</svg>