<svg width="916" height="421.36599" xmlns="http://www.w3.org/2000/svg" data-name="Layer 1">

 <g>
  <title>Layer 1</title>
  <polygon id="svg_2" fill="#f2f2f2" points="636.807 425.96 40.957 425.96 255.127 119.74 338.877 0 402.627 91.14 636.807 425.96"/>
  <polygon id="svg_3" fill="#f2f2f2" points="610.779 115.96 393.956 425.96 827.602 425.96 610.779 115.96 393.956 425.96 827.602 425.96 610.779 115.96"/>
  <path id="svg_4" fill="#e6e6e6" d="m338.87691,-0.00002l4.93018,85.96l-16.29134,123.695s134.56693,70.84761 134.92913,74.0763s-28.34645,94.06461 -28.34645,94.06461l202.70866,48.16409l-297.93018,-425.96z"/>
  <path id="svg_5" fill="#e6e6e6" d="m610.77873,115.95998l35.35119,83.17774l62.67717,125.82226l37.10236,18.96875s-2.43307,29.46307 -2.26772,33.24716s83.9599,48.78409 83.9599,48.78409l-216.8229,-310z"/>
  <path id="svg_6" fill="#ccc" d="m915,425.95998l-914,0a1,1 0 0 1 0,-2l914,0a1,1 0 0 1 0,2z"/>
 </g>
</svg>