<svg width="916" height="587.36599" xmlns="http://www.w3.org/2000/svg" data-name="Layer 1">

 <g>
  <title>Layer 1</title>
  <circle id="svg_1" fill="#ff6584" r="73" cy="83.95986" cx="99.39475"/>
  <polygon id="svg_2" fill="#f2f2f2" points="636.807 425.96 40.957 425.96 255.127 119.74 338.877 0 402.627 91.14 636.807 425.96"/>
  <polygon id="svg_3" fill="#f2f2f2" points="610.779 115.96 393.956 425.96 827.602 425.96 610.779 115.96 393.956 425.96 827.602 425.96 610.779 115.96"/>
  <path id="svg_4" fill="#e6e6e6" d="m338.87691,-0.00002l4.93018,85.96l-16.29134,123.695s134.56693,70.84761 134.92913,74.0763s-28.34645,94.06461 -28.34645,94.06461l202.70866,48.16409l-297.93018,-425.96z"/>
  <path id="svg_5" fill="#e6e6e6" d="m610.77873,115.95998l35.35119,83.17774l62.67717,125.82226l37.10236,18.96875s-2.43307,29.46307 -2.26772,33.24716s83.9599,48.78409 83.9599,48.78409l-216.8229,-310z"/>
  <path id="svg_6" fill="#ccc" d="m915,425.95998l-914,0a1,1 0 0 1 0,-2l914,0a1,1 0 0 1 0,2z"/>
  <circle id="svg_7" fill="#ccc" r="78.23654" cy="288.55266" cx="202.57055"/>
  <path id="svg_8" opacity="0.2" d="m144.80321,236.29678a78.24264,78.24264 0 0 0 130.3652,82.80326a78.24328,78.24328 0 1 1 -130.3652,-82.80326z"/>
  <polygon id="svg_9" fill="#3f3d56" points="202.785 288.553 203.001 288.553 206.869 510.366 198.702 510.366 202.785 288.553"/>
  <circle id="svg_10" fill="#ff6366" r="67.23654" cy="396.73945" cx="303.57055"/>
  <path id="svg_11" opacity="0.2" d="m253.92526,351.83071a67.24177,67.24177 0 0 0 112.03594,71.16118a67.24233,67.24233 0 1 1 -112.03594,-71.16118z"/>
  <polygon id="svg_12" fill="#3f3d56" points="303.755 396.739 303.94 396.739 307.265 587.366 300.246 587.366 303.755 396.739"/>
  <circle id="svg_13" fill="#ff6366" r="94.23483" cy="201.19489" cx="395.0419"/>
  <path id="svg_14" opacity="0.2" d="m464.62187,138.2534a94.24218,94.24218 0 0 1 -157.02309,99.73539a94.24295,94.24295 0 1 0 157.02309,-99.73539z"/>
  <polygon id="svg_15" fill="#3f3d56" points="394.783 201.195 394.524 201.195 389.864 468.366 399.702 468.366 394.783 201.195"/>
  <path id="svg_16" fill="#3f3d56" d="m538.76274,116.58742l12.79486,-10.23344c-9.93976,-1.09662 -14.0238,4.32429 -15.69525,8.615c-7.76532,-3.22446 -16.21881,1.00136 -16.21881,1.00136l25.6001,9.29375a19.37207,19.37207 0 0 0 -6.4809,-8.67667z"/>
  <path id="svg_17" fill="#3f3d56" d="m555.34648,36.82869l12.7948,-10.23343c-9.93976,-1.09662 -14.0238,4.32431 -15.69525,8.615c-7.76532,-3.22445 -16.21881,1.00135 -16.21881,1.00135l25.6001,9.29376a19.37253,19.37253 0 0 0 -6.48084,-8.67668z"/>
  <path id="svg_18" fill="#3f3d56" d="m647.474,120.78124l12.7948,-10.23343c-9.93975,-1.09662 -14.0238,4.32431 -15.69525,8.615c-7.76532,-3.22446 -16.21881,1.00137 -16.21881,1.00137l25.6001,9.29373a19.37236,19.37236 0 0 0 -6.48084,-8.67667z"/>
 </g>
</svg>
